<?xml version="1.0" standalone="no"?>
<!DOCTYPE svg PUBLIC "-//W3C//DTD SVG 20010904//EN"
 "http://www.w3.org/TR/2001/REC-SVG-20010904/DTD/svg10.dtd">
<svg version="1.0" xmlns="http://www.w3.org/2000/svg"
 width="811.000000pt" height="251.000000pt" viewBox="0 0 811.000000 251.000000"
 preserveAspectRatio="xMidYMid meet">
<metadata>
Created by potrace 1.16, written by Peter Selinger 2001-2019
</metadata>
<g transform="translate(0.000000,251.000000) scale(0.100000,-0.100000)"
fill="#ffffff" stroke="none">
<path d="M3297 1710 c-49 -13 -126 -52 -166 -86 -68 -57 -107 -188 -81 -270
29 -90 91 -137 280 -214 67 -27 142 -61 165 -75 118 -69 148 -199 63 -270 -29
-25 -38 -27 -103 -23 -146 7 -280 115 -379 303 l-31 60 -3 -140 c-1 -76 -1
-144 2 -150 7 -19 137 -82 206 -100 138 -37 324 -19 427 42 111 65 169 203
132 314 -30 90 -91 135 -283 209 -202 79 -257 122 -272 216 -8 53 15 108 58
134 27 18 45 21 98 17 138 -9 275 -118 366 -289 19 -38 37 -68 40 -68 2 0 4
65 4 145 l0 144 -46 27 c-101 59 -169 77 -309 80 -71 2 -147 -1 -168 -6z
M3830 1580 c0 -77 3 -140 8 -140 4 0 23 23 42 51 53 78 134 157 182 179 l43
19 3 -484 2 -485 110 0 110 0 0 485 c0 267 2 485 5 485 3 0 21 -6 40 -14 46
-20 115 -85 176 -167 28 -38 53 -69 55 -69 2 0 4 63 4 140 l0 140 -390 0 -390
0 0 -140z M4642 1343 l3 -378 26 -55 c36 -77 80 -124 146 -157 48 -23 69 -27
138 -26 178 1 288 101 330 303 11 55 15 144 15 381 l0 309 -115 0 c-63 0 -115
-3 -115 -7 0 -5 20 -77 45 -162 85 -292 108 -495 69 -619 -24 -74 -92 -147
-149 -158 -79 -14 -136 44 -155 162 -6 33 -10 222 -10 422 l0 362 -116 0 -115
0 3 -377z M5470 1220 l0 -500 143 0 c78 0 168 4 200 10 217 35 360 211 374
460 14 249 -111 453 -316 514 -41 12 -98 16 -228 16 l-173 0 0 -500z m362 403
c157 -152 179 -542 43 -750 -34 -52 -93 -95 -147 -108 l-28 -7 0 465 0 466 47
-14 c27 -8 63 -30 85 -52z M6370 1220 l0 -500 110 0 110 0 0 500 0 500 -110 0
-110 0 0 -500z M7098 1697 c-130 -45 -230 -136 -289 -262 -115 -244 -8 -543
234 -659 337 -162 717 76 717 449 0 200 -106 366 -287 453 -74 35 -84 37 -193
40 -99 2 -124 -1 -182 -21z m7 -230 c-77 -57 -115 -123 -123 -214 -9 -110 32
-200 120 -263 47 -34 43 -36 -33 -14 -301 90 -353 330 -98 459 39 20 134 52
159 54 3 0 -8 -10 -25 -22z m431 -26 c120 -56 190 -145 182 -230 -11 -110
-128 -204 -303 -246 -29 -6 -29 -6 10 23 94 68 129 141 123 254 -5 89 -26 137
-88 197 -44 44 -45 44 -15 37 17 -4 58 -20 91 -35z M350 1210 l0 -500 110 0
110 0 0 500 0 500 -110 0 -110 0 0 -500z M670 1210 l0 -500 110 0 110 0 0 240
0 240 172 0 171 0 42 -43 c61 -64 94 -193 95 -364 l0 -73 116 0 117 0 -7 85
c-17 205 -85 333 -207 390 l-48 22 42 12 c123 37 217 138 217 236 0 75 -59
159 -142 201 -97 49 -139 54 -475 54 l-313 0 0 -500z m402 444 c162 -39 258
-138 229 -235 -30 -99 -153 -165 -343 -184 l-68 -7 0 226 0 226 63 -6 c34 -3
88 -12 119 -20z M1680 1210 l0 -500 110 0 110 0 0 500 0 500 -110 0 -110 0 0
-500z M2237 1700 c-113 -29 -220 -115 -245 -198 -16 -53 -15 -145 2 -185 29
-69 96 -117 259 -184 198 -81 245 -111 273 -178 19 -46 18 -92 -4 -135 -22
-45 -53 -60 -128 -60 -131 0 -283 117 -372 287 l-41 78 -1 -151 0 -151 58 -31
c214 -113 492 -102 626 26 110 106 116 278 12 370 -46 40 -84 59 -232 118
-129 51 -154 64 -197 103 -41 37 -57 73 -57 126 0 95 57 142 161 132 133 -12
270 -123 359 -292 17 -33 33 -62 36 -64 2 -2 4 62 4 142 l0 147 -52 30 c-92
53 -170 72 -303 76 -66 2 -137 -1 -158 -6z"/>
</g>
</svg>
